# Blender v2.79 (sub 0) OBJ File: ''
# www.blender.org
mtllib rock.mtl
o Icosphere
v 0.000000 -0.570380 -0.000035
v 0.217082 -0.517192 0.157683
v -0.082916 -0.517193 0.255160
v -0.268328 -0.517191 -0.000035
v -0.082916 -0.517193 -0.255230
v 0.217082 -0.517192 -0.157753
v 0.082916 -0.364011 0.205448
v -0.217082 -0.364011 0.157683
v -0.217082 -0.364011 -0.157753
v 0.082916 -0.364011 -0.255230
v 0.252782 -0.364012 -0.000035
v 0.000000 -0.220741 -0.000035
v -0.048737 -0.553112 0.149964
v 0.127597 -0.553112 0.092669
v 0.078861 -0.520722 0.242669
v 0.255194 -0.520721 -0.000035
v 0.127597 -0.553112 -0.092738
v -0.157719 -0.553111 -0.000035
v -0.206457 -0.520721 0.149964
v -0.048737 -0.553112 -0.150034
v -0.206457 -0.520721 -0.150034
v 0.078861 -0.520722 -0.242738
v 0.285317 -0.498176 0.092669
v 0.285317 -0.498176 -0.092739
v 0.000000 -0.498176 0.299965
v 0.176336 -0.498176 0.242670
v -0.285317 -0.498176 0.092669
v -0.176336 -0.498176 0.242670
v -0.176336 -0.498176 -0.242740
v -0.285317 -0.498176 -0.092739
v 0.176336 -0.498176 -0.242740
v 0.000000 -0.498176 -0.300035
v 0.206457 -0.340456 0.149964
v -0.078861 -0.340455 0.242669
v -0.231711 -0.340456 -0.000035
v -0.078861 -0.340455 -0.242738
v 0.206457 -0.340456 -0.150034
v 0.048737 -0.275574 0.149964
v 0.157719 -0.242981 -0.000035
v -0.127597 -0.263038 0.092669
v -0.101207 -0.276940 -0.092738
v 0.048737 -0.300636 -0.150034
vt 0.500000 0.500000
vt 0.345494 0.276395
vt 0.250002 0.585408
vt 0.237137 0.119578
vt 0.500000 0.052789
vt 0.500000 0.776392
vt 0.749998 0.585408
vt 0.654506 0.276395
vt 0.345494 0.000000
vt 0.074675 0.645306
vt 0.095494 0.361802
vt 0.000000 0.500000
vt 0.500000 0.970227
vt 0.250002 0.861802
vt 0.345494 1.000000
vt 0.925325 0.645306
vt 0.749999 0.861802
vt 0.904509 0.809017
vt 0.762863 0.119578
vt 0.904506 0.361802
vt 0.904509 0.190983
vt 0.095492 0.190983
vt 0.095492 0.809017
vt 0.654507 1.000000
vt 1.000000 0.500000
vt 0.654506 0.000000
vt 0.157529 0.354694
vt 0.250002 0.138198
vt 0.250002 0.414592
vt 0.237138 0.880422
vt 0.095494 0.638198
vt 0.345494 0.723605
vt 0.762863 0.880422
vt 0.500000 0.906059
vt 0.654506 0.677358
vt 0.925325 0.354694
vt 0.904506 0.638198
vt 0.749998 0.414592
vt 0.500000 0.057016
vt 0.749999 0.138198
vt 0.500000 0.223608
vt 0.500000 0.500000
vn 0.0414 -0.9910 0.1275
vn 0.3099 -0.9459 0.0961
vn -0.1085 -0.9910 0.0788
vn -0.1085 -0.9910 -0.0788
vn 0.0414 -0.9910 -0.1275
vn 0.3610 -0.9263 0.1080
vn 0.0089 -0.9263 0.3767
vn -0.3555 -0.9263 0.1248
vn -0.2286 -0.9263 -0.2995
vn 0.2142 -0.9263 -0.3100
vn 0.6033 -0.6663 0.4383
vn -0.2304 -0.6663 0.7092
vn -0.7457 -0.6663 0.0000
vn -0.2304 -0.6663 -0.7092
vn 0.6033 -0.6663 -0.4383
vn 0.2389 0.5806 0.7783
vn -0.4444 0.7290 0.5206
vn -0.5277 0.8316 -0.1731
vn 0.0880 0.8656 -0.4929
vn 0.7782 0.6112 -0.1443
vn 0.1258 0.8920 -0.4342
vn 0.2144 0.8494 -0.4823
vn 0.2185 0.8656 -0.4505
vn -0.0455 0.8755 -0.4811
vn -0.0037 0.9206 -0.3904
vn -0.3913 0.8251 -0.4076
vn -0.3923 0.9114 -0.1242
vn -0.5101 0.8492 -0.1363
vn -0.6808 0.7125 0.1696
vn -0.0497 0.9327 0.3571
vn -0.0942 0.8719 0.4806
vn 0.2618 0.5835 0.7688
vn 0.1331 0.9440 0.3018
vn 0.3433 0.8346 0.4308
vn 0.7782 0.6112 0.1443
vn 0.9021 0.3710 -0.2203
vn 0.7947 0.1876 -0.5773
vn 0.5746 0.3304 -0.7488
vn -0.0247 0.3304 -0.9435
vn -0.3035 0.1876 -0.9342
vn -0.5346 0.3304 -0.7779
vn -0.9085 0.3928 -0.1429
vn -0.9468 0.3218 0.0000
vn -0.9085 0.3928 0.1429
vn -0.5346 0.3304 0.7779
vn -0.3035 0.1876 0.9342
vn 0.2618 0.4425 0.8577
vn 0.2963 0.4413 0.8470
vn 0.7947 0.1876 0.5773
vn 0.9021 0.3710 0.2203
vn 0.3066 0.1256 -0.9435
vn 0.1852 -0.8006 -0.5699
vn 0.0089 -0.9263 -0.3767
vn -0.8026 0.1256 -0.5831
vn -0.4848 -0.8006 -0.3522
vn -0.3555 -0.9263 -0.1248
vn -0.8026 0.1256 0.5831
vn -0.4848 -0.8006 0.3522
vn -0.2286 -0.9263 0.2995
vn 0.2787 0.4320 0.8577
vn 0.1852 -0.8006 0.5699
vn 0.2142 -0.9263 0.3100
vn 0.9718 0.2357 0.0000
vn 0.5992 -0.8006 0.0000
vn 0.3610 -0.9263 -0.1080
vn 0.1871 -0.9459 -0.2651
vn 0.0760 -0.9693 -0.2340
vn 0.0044 -0.9459 -0.3244
vn -0.1943 -0.9459 -0.2599
vn -0.1991 -0.9693 -0.1446
vn -0.3072 -0.9459 -0.1044
vn -0.3072 -0.9459 0.1044
vn -0.1991 -0.9693 0.1446
vn -0.1943 -0.9459 0.2599
vn 0.3099 -0.9459 -0.0961
vn 0.2460 -0.9693 0.0000
vn 0.1341 -0.9910 0.0000
vn 0.0044 -0.9459 0.3244
vn 0.0760 -0.9693 0.2340
vn 0.1871 -0.9459 0.2651
usemtl None
s off
f 1/1/1 14/2/1 13/3/1
f 2/4/2 14/2/2 16/5/2
f 1/1/3 13/3/3 18/6/3
f 1/1/4 18/6/4 20/7/4
f 1/1/5 20/7/5 17/8/5
f 2/4/6 16/5/6 23/9/6
f 3/10/7 15/11/7 25/12/7
f 4/13/8 19/14/8 27/15/8
f 5/16/9 21/17/9 29/18/9
f 6/19/10 22/20/10 31/21/10
f 2/4/11 23/9/11 26/22/11
f 3/10/12 25/12/12 28/23/12
f 4/13/13 27/15/13 30/24/13
f 5/16/14 29/18/14 32/25/14
f 6/19/15 31/21/15 24/26/15
f 7/27/16 33/28/16 38/29/16
f 8/30/17 34/31/17 40/32/17
f 9/33/18 35/34/18 41/35/18
f 10/36/19 36/37/19 42/38/19
f 11/39/20 37/40/20 39/41/20
f 39/41/21 42/38/21 12/42/21
f 39/41/22 37/40/22 42/38/22
f 37/40/23 10/36/23 42/38/23
f 42/38/24 41/35/24 12/42/24
f 42/38/25 36/37/25 41/35/25
f 36/37/26 9/33/26 41/35/26
f 41/35/27 40/32/27 12/42/27
f 41/35/28 35/34/28 40/32/28
f 35/34/29 8/30/29 40/32/29
f 40/32/30 38/29/30 12/42/30
f 40/32/31 34/31/31 38/29/31
f 34/31/32 7/27/32 38/29/32
f 38/29/33 39/41/33 12/42/33
f 38/29/34 33/28/34 39/41/34
f 33/28/35 11/39/35 39/41/35
f 24/26/36 37/40/36 11/39/36
f 24/26/37 31/21/37 37/40/37
f 31/21/38 10/36/38 37/40/38
f 32/25/39 36/37/39 10/36/39
f 32/25/40 29/18/40 36/37/40
f 29/18/41 9/33/41 36/37/41
f 30/24/42 35/34/42 9/33/42
f 30/24/43 27/15/43 35/34/43
f 27/15/44 8/30/44 35/34/44
f 28/23/45 34/31/45 8/30/45
f 28/23/46 25/12/46 34/31/46
f 25/12/47 7/27/47 34/31/47
f 26/22/48 33/28/48 7/27/48
f 26/22/49 23/9/49 33/28/49
f 23/9/50 11/39/50 33/28/50
f 31/21/51 32/25/51 10/36/51
f 31/21/52 22/20/52 32/25/52
f 22/20/53 5/16/53 32/25/53
f 29/18/54 30/24/54 9/33/54
f 29/18/55 21/17/55 30/24/55
f 21/17/56 4/13/56 30/24/56
f 27/15/57 28/23/57 8/30/57
f 27/15/58 19/14/58 28/23/58
f 19/14/59 3/10/59 28/23/59
f 25/12/60 26/22/60 7/27/60
f 25/12/61 15/11/61 26/22/61
f 15/11/62 2/4/62 26/22/62
f 23/9/63 24/26/63 11/39/63
f 23/9/64 16/5/64 24/26/64
f 16/5/65 6/19/65 24/26/65
f 17/8/66 22/20/66 6/19/66
f 17/8/67 20/7/67 22/20/67
f 20/7/68 5/16/68 22/20/68
f 20/7/69 21/17/69 5/16/69
f 20/7/70 18/6/70 21/17/70
f 18/6/71 4/13/71 21/17/71
f 18/6/72 19/14/72 4/13/72
f 18/6/73 13/3/73 19/14/73
f 13/3/74 3/10/74 19/14/74
f 16/5/75 17/8/75 6/19/75
f 16/5/76 14/2/76 17/8/76
f 14/2/77 1/1/77 17/8/77
f 13/3/78 15/11/78 3/10/78
f 13/3/79 14/2/79 15/11/79
f 14/2/80 2/4/80 15/11/80
